<?plantuml 1.2026.1?><svg xmlns="http://www.w3.org/2000/svg" xmlns:xlink="http://www.w3.org/1999/xlink" contentStyleType="text/css" data-diagram-type="SEQUENCE" height="376px" preserveAspectRatio="none" style="width:736px;height:376px;" version="1.1" viewBox="0 0 736 376" width="736px" zoomAndPan="magnify"><defs/><g><g><title>oracle-schema-extractor</title><rect fill="#FFFFFF" height="29.1328" style="stroke:#181818;stroke-width:1;" width="10" x="208.4746" y="98.4297"/></g><g><title>Agente IA</title><rect fill="#FFFFFF" height="58.2656" style="stroke:#181818;stroke-width:1;" width="10" x="684.6011" y="222.0938"/></g><g class="participant-lifeline" data-entity-uid="part1" data-qualified-name="P" id="part1-lifeline"><g><title>Programador</title><rect fill="#000000" fill-opacity="0.00000" height="231.0625" width="8" x="53.7051" y="67.2969"/><line style="stroke:#181818;stroke-width:0.5;stroke-dasharray:5,5;" x1="57" x2="57" y1="67.2969" y2="298.3594"/></g></g><g class="participant-lifeline" data-entity-uid="part2" data-qualified-name="E" id="part2-lifeline"><g><title>oracle-schema-extractor</title><rect fill="#000000" fill-opacity="0.00000" height="231.0625" width="8" x="209.4746" y="67.2969"/><line style="stroke:#181818;stroke-width:0.5;stroke-dasharray:5,5;" x1="213.4102" x2="213.4102" y1="67.2969" y2="298.3594"/></g></g><g class="participant-lifeline" data-entity-uid="part3" data-qualified-name="D" id="part3-lifeline"><g><title>Disco local</title><rect fill="#000000" fill-opacity="0.00000" height="231.0625" width="8" x="446.8999" y="67.2969"/><line style="stroke:#181818;stroke-width:0.5;stroke-dasharray:5,5;" x1="450.251" x2="450.251" y1="67.2969" y2="298.3594"/></g></g><g class="participant-lifeline" data-entity-uid="part4" data-qualified-name="A" id="part4-lifeline"><g><title>Agente IA</title><rect fill="#000000" fill-opacity="0.00000" height="231.0625" width="8" x="685.6011" y="67.2969"/><line style="stroke:#181818;stroke-width:0.5;stroke-dasharray:5,5;" x1="689.4966" x2="689.4966" y1="67.2969" y2="298.3594"/></g></g><g class="participant participant-head" data-entity-uid="part1" data-qualified-name="P" id="part1-head"><rect fill="#E2E2F0" height="30.2969" rx="2.5" ry="2.5" style="stroke:#181818;stroke-width:0.5;" width="105.4102" x="5" y="36"/><text fill="#000000" font-family="sans-serif" font-size="14" lengthAdjust="spacing" textLength="91.4102" x="12" y="55.9951">Programador</text></g><g class="participant participant-tail" data-entity-uid="part1" data-qualified-name="P" id="part1-tail"><rect fill="#E2E2F0" height="30.2969" rx="2.5" ry="2.5" style="stroke:#181818;stroke-width:0.5;" width="105.4102" x="5" y="297.3594"/><text fill="#000000" font-family="sans-serif" font-size="14" lengthAdjust="spacing" textLength="91.4102" x="12" y="317.3545">Programador</text></g><g class="participant participant-head" data-entity-uid="part2" data-qualified-name="E" id="part2-head"><rect fill="#E2E2F0" height="30.2969" rx="2.5" ry="2.5" style="stroke:#181818;stroke-width:0.5;" width="186.1289" x="120.4102" y="36"/><text fill="#000000" font-family="sans-serif" font-size="14" lengthAdjust="spacing" textLength="172.1289" x="127.4102" y="55.9951">oracle-schema-extractor</text></g><g class="participant participant-tail" data-entity-uid="part2" data-qualified-name="E" id="part2-tail"><rect fill="#E2E2F0" height="30.2969" rx="2.5" ry="2.5" style="stroke:#181818;stroke-width:0.5;" width="186.1289" x="120.4102" y="297.3594"/><text fill="#000000" font-family="sans-serif" font-size="14" lengthAdjust="spacing" textLength="172.1289" x="127.4102" y="317.3545">oracle-schema-extractor</text></g><g class="participant participant-head" data-entity-uid="part3" data-qualified-name="D" id="part3-head"><text fill="#000000" font-family="sans-serif" font-size="14" lengthAdjust="spacing" textLength="75.2979" x="410.251" y="63.9951">Disco local</text><path d="M432.8999,15 C432.8999,5 450.8999,5 450.8999,5 C450.8999,5 468.8999,5 468.8999,15 L468.8999,41 C468.8999,51 450.8999,51 450.8999,51 C450.8999,51 432.8999,51 432.8999,41 L432.8999,15" fill="#E2E2F0" style="stroke:#181818;stroke-width:0.5;"/><path d="M432.8999,15 C432.8999,25 450.8999,25 450.8999,25 C450.8999,25 468.8999,25 468.8999,15" fill="none" style="stroke:#181818;stroke-width:0.5;"/></g><g class="participant participant-tail" data-entity-uid="part3" data-qualified-name="D" id="part3-tail"><text fill="#000000" font-family="sans-serif" font-size="14" lengthAdjust="spacing" textLength="75.2979" x="410.251" y="310.3545">Disco local</text><path d="M432.8999,323.6563 C432.8999,313.6563 450.8999,313.6563 450.8999,313.6563 C450.8999,313.6563 468.8999,313.6563 468.8999,323.6563 L468.8999,349.6563 C468.8999,359.6563 450.8999,359.6563 450.8999,359.6563 C450.8999,359.6563 432.8999,359.6563 432.8999,349.6563 L432.8999,323.6563" fill="#E2E2F0" style="stroke:#181818;stroke-width:0.5;"/><path d="M432.8999,323.6563 C432.8999,333.6563 450.8999,333.6563 450.8999,333.6563 C450.8999,333.6563 468.8999,333.6563 468.8999,323.6563" fill="none" style="stroke:#181818;stroke-width:0.5;"/></g><g class="participant participant-head" data-entity-uid="part4" data-qualified-name="A" id="part4-head"><rect fill="#E2E2F0" height="30.2969" rx="2.5" ry="2.5" style="stroke:#181818;stroke-width:0.5;" width="82.209" x="648.4966" y="36"/><text fill="#000000" font-family="sans-serif" font-size="14" lengthAdjust="spacing" textLength="68.209" x="655.4966" y="55.9951">Agente IA</text></g><g class="participant participant-tail" data-entity-uid="part4" data-qualified-name="A" id="part4-tail"><rect fill="#E2E2F0" height="30.2969" rx="2.5" ry="2.5" style="stroke:#181818;stroke-width:0.5;" width="82.209" x="648.4966" y="297.3594"/><text fill="#000000" font-family="sans-serif" font-size="14" lengthAdjust="spacing" textLength="68.209" x="655.4966" y="317.3545">Agente IA</text></g><g><title>oracle-schema-extractor</title><rect fill="#FFFFFF" height="29.1328" style="stroke:#181818;stroke-width:1;" width="10" x="208.4746" y="98.4297"/></g><g><title>Agente IA</title><rect fill="#FFFFFF" height="58.2656" style="stroke:#181818;stroke-width:1;" width="10" x="684.6011" y="222.0938"/></g><g class="message" data-entity-1="part1" data-entity-2="part2" id="msg1"><polygon fill="#181818" points="196.4746,94.4297,206.4746,98.4297,196.4746,102.4297,200.4746,98.4297" style="stroke:#181818;stroke-width:1;"/><line style="stroke:#181818;stroke-width:1.5;" x1="57.7051" x2="202.4746" y1="98.4297" y2="98.4297"/><text fill="#000000" font-family="sans-serif" font-size="13" lengthAdjust="spacing" textLength="125.9502" x="64.7051" y="93.3638">Ejecutar extracci&#243;n</text></g><g class="message" data-entity-1="part2" data-entity-2="part3" id="msg2"><polygon fill="#181818" points="438.8999,123.5625,448.8999,127.5625,438.8999,131.5625,442.8999,127.5625" style="stroke:#181818;stroke-width:1;"/><line style="stroke:#181818;stroke-width:1.5;" x1="213.4746" x2="444.8999" y1="127.5625" y2="127.5625"/><text fill="#000000" font-family="sans-serif" font-size="13" lengthAdjust="spacing" textLength="208.4253" x="220.4746" y="122.4966">Escribe SQL organizado por tipo</text></g><path d="M347,143.0625 L347,193.0625 A2.5,2.5 0 0 0 349.5,195.5625 L550.5,195.5625 A2.5,2.5 0 0 0 553,193.0625 L553,150.5625 L543,140.5625 L349.5,140.5625 A2.5,2.5 0 0 0 347,143.0625" fill="#FEFFDD" style="stroke:#181818;stroke-width:0.5;"/><path d="M543,140.5625 L543,149.3125 A1.25,1.25 0 0 0 544.25,150.5625 L553,150.5625 L543,140.5625" fill="#FEFFDD" style="stroke:#181818;stroke-width:0.5;"/><text fill="#000000" font-family="sans-serif" font-size="13" lengthAdjust="spacing" textLength="182.3301" x="353" y="157.6294">VISTAS/VCTS_UNIDADES.sql</text><text fill="#000000" font-family="sans-serif" font-size="13" lengthAdjust="spacing" textLength="171.1011" x="353" y="172.7622">PAQUETES/PKG_CITAS.pks</text><text fill="#000000" font-family="sans-serif" font-size="13" lengthAdjust="spacing" textLength="185.4531" x="353" y="187.895">TABLAS/TCTS_UNIDADES.sql</text><g class="message" data-entity-1="part1" data-entity-2="part4" id="msg3"><polygon fill="#181818" points="672.6011,218.0938,682.6011,222.0938,672.6011,226.0938,676.6011,222.0938" style="stroke:#181818;stroke-width:1;"/><line style="stroke:#181818;stroke-width:1.5;" x1="57.7051" x2="678.6011" y1="222.0938" y2="222.0938"/><text fill="#000000" font-family="sans-serif" font-size="13" lengthAdjust="spacing" textLength="281.6646" x="64.7051" y="217.0278">"Crea el modelo C# para VCTS_UNIDADES"</text></g><g class="message" data-entity-1="part4" data-entity-2="part3" id="msg4"><polygon fill="#181818" points="461.8999,247.2266,451.8999,251.2266,461.8999,255.2266,457.8999,251.2266" style="stroke:#181818;stroke-width:1;"/><line style="stroke:#181818;stroke-width:1.5;" x1="455.8999" x2="683.6011" y1="251.2266" y2="251.2266"/><text fill="#000000" font-family="sans-serif" font-size="13" lengthAdjust="spacing" textLength="209.7012" x="467.8999" y="246.1606">Lee VISTAS/VCTS_UNIDADES.sql</text></g><g class="message" data-entity-1="part4" data-entity-2="part1" id="msg5"><polygon fill="#181818" points="68.7051,276.3594,58.7051,280.3594,68.7051,284.3594,64.7051,280.3594" style="stroke:#181818;stroke-width:1;"/><line style="stroke:#181818;stroke-width:1.5;stroke-dasharray:2,2;" x1="62.7051" x2="688.6011" y1="280.3594" y2="280.3594"/><text fill="#000000" font-family="sans-serif" font-size="13" lengthAdjust="spacing" textLength="285.6255" x="74.7051" y="275.2935">Genera ClaseUnidad.cs con mapeo correcto</text></g><?plantuml-src TP7FJiCm3CRlUGghd5V4WGi7fD1MQ692HUrsdRpKAc5jN9mE4A_58_1YkEFV9iGfKRwVxUzpujQ70GLxsA3RjiAxq6JSiS0e6A9A54OJVwX8ZpiAZgm8FzVttcq3nGXdwVa1jE_YM089d1kZZwDtVi0mGb8AjyfWmv80HYYFPHPq7SsYkwSUP_IYBjpuXHQcmH4t60cIt4V7qB73Rg_bnsrigxO9vdOlMcDAc5r20HTGF93RZIZmsTlvzxTWT8P_GYqeJ361-GH69tv3KDqjWAN5u5_LD0pJQlp0fg63AXDOJtxImBa1MCshsbQdgwokrilRUMxpeahZOwTIQU-MHLrKf-NDzJgRAvOEswX2RQyMMbF_gQ7GmDJ-AuHLRqacX40TzDnGnv2TmBHvE1gO_CQondx7MX3zRqyfnKh5haa_3o7hTDlBu1jiKXV1SO0U1sAzYP3-pE4Qx0S0?></g></svg>