<?xml version="1.0" encoding="UTF-8" standalone="no"?>
<!DOCTYPE svg PUBLIC "-//W3C//DTD SVG 1.1//EN"
 "http://www.w3.org/Graphics/SVG/1.1/DTD/svg11.dtd">
<!-- Generated by graphviz version 9.0.0 (20230911.1827)
 -->
<!-- Pages: 1 -->
<svg width="511pt" height="427pt"
 viewBox="0.00 0.00 511.00 427.00" xmlns="http://www.w3.org/2000/svg" xmlns:xlink="http://www.w3.org/1999/xlink">
<g id="graph0" class="graph" transform="scale(1 1) rotate(0) translate(4 423)">
<polygon fill="white" stroke="none" points="-4,4 -4,-423 507,-423 507,4 -4,4"/>
<!-- TRES_TIPO_RECURSO -->
<g id="node1" class="node">
<title>TRES_TIPO_RECURSO</title>
<polygon fill="none" stroke="black" points="8,-262.88 8,-292.38 207.75,-292.38 207.75,-262.88 8,-262.88"/>
<text text-anchor="start" x="13" y="-273.18" font-family="Helvetica,sans-Serif" font-weight="bold" font-size="16.00">TRES_TIPO_RECURSO</text>
<polygon fill="none" stroke="black" points="8,-235.62 8,-262.88 207.75,-262.88 207.75,-235.62 8,-235.62"/>
<text text-anchor="start" x="13" y="-245.57" font-family="Helvetica,sans-Serif" text-decoration="underline" font-size="14.00">ID_TIPO_RECURSO</text>
<text text-anchor="start" x="142.75" y="-245.57" font-family="Helvetica,sans-Serif" font-size="14.00"> [PK]</text>
<polygon fill="none" stroke="black" points="8,-208.38 8,-235.62 207.75,-235.62 207.75,-208.38 8,-208.38"/>
<text text-anchor="start" x="13" y="-217.32" font-family="Helvetica,sans-Serif" font-size="14.00">CODIGO</text>
<polygon fill="none" stroke="black" points="8,-181.12 8,-208.38 207.75,-208.38 207.75,-181.12 8,-181.12"/>
<text text-anchor="start" x="13" y="-190.07" font-family="Helvetica,sans-Serif" font-size="14.00">NOMBRE_ES</text>
<polygon fill="none" stroke="black" points="8,-153.88 8,-181.12 207.75,-181.12 207.75,-153.88 8,-153.88"/>
<text text-anchor="start" x="13" y="-162.82" font-family="Helvetica,sans-Serif" font-size="14.00">NOMBRE_CA</text>
<polygon fill="none" stroke="black" points="8,-126.62 8,-153.88 207.75,-153.88 207.75,-126.62 8,-126.62"/>
<text text-anchor="start" x="13" y="-135.57" font-family="Helvetica,sans-Serif" font-size="14.00">NOMBRE_EN</text>
</g>
<!-- TRES_RECURSO -->
<g id="node2" class="node">
<title>TRES_RECURSO</title>
<polygon fill="none" stroke="black" points="296.75,-385.5 296.75,-415 495,-415 495,-385.5 296.75,-385.5"/>
<text text-anchor="start" x="326.5" y="-395.8" font-family="Helvetica,sans-Serif" font-weight="bold" font-size="16.00">TRES_RECURSO</text>
<polygon fill="none" stroke="black" points="296.75,-358.25 296.75,-385.5 495,-385.5 495,-358.25 296.75,-358.25"/>
<text text-anchor="start" x="301.75" y="-368.2" font-family="Helvetica,sans-Serif" text-decoration="underline" font-size="14.00">ID_RECURSO</text>
<text text-anchor="start" x="392.5" y="-368.2" font-family="Helvetica,sans-Serif" font-size="14.00"> [PK]</text>
<polygon fill="none" stroke="black" points="296.75,-331 296.75,-358.25 495,-358.25 495,-331 296.75,-331"/>
<text text-anchor="start" x="301.75" y="-340.95" font-family="Helvetica,sans-Serif" font-style="italic" font-size="14.00">ID_TIPO_RECURSO</text>
<text text-anchor="start" x="431.5" y="-340.95" font-family="Helvetica,sans-Serif" font-size="14.00"> [FK]</text>
<polygon fill="none" stroke="black" points="296.75,-303.75 296.75,-331 495,-331 495,-303.75 296.75,-303.75"/>
<text text-anchor="start" x="301.75" y="-312.7" font-family="Helvetica,sans-Serif" font-size="14.00">NOMBRE_ES</text>
<polygon fill="none" stroke="black" points="296.75,-276.5 296.75,-303.75 495,-303.75 495,-276.5 296.75,-276.5"/>
<text text-anchor="start" x="301.75" y="-285.45" font-family="Helvetica,sans-Serif" font-size="14.00">NOMBRE_CA</text>
<polygon fill="none" stroke="black" points="296.75,-249.25 296.75,-276.5 495,-276.5 495,-249.25 296.75,-249.25"/>
<text text-anchor="start" x="301.75" y="-258.2" font-family="Helvetica,sans-Serif" font-size="14.00">NOMBRE_EN</text>
<polygon fill="none" stroke="black" points="296.75,-222 296.75,-249.25 495,-249.25 495,-222 296.75,-222"/>
<text text-anchor="start" x="301.75" y="-230.95" font-family="Helvetica,sans-Serif" font-size="14.00">DESCRIPCION_ES</text>
<polygon fill="none" stroke="black" points="296.75,-194.75 296.75,-222 495,-222 495,-194.75 296.75,-194.75"/>
<text text-anchor="start" x="301.75" y="-203.7" font-family="Helvetica,sans-Serif" font-size="14.00">DESCRIPCION_CA</text>
<polygon fill="none" stroke="black" points="296.75,-167.5 296.75,-194.75 495,-194.75 495,-167.5 296.75,-167.5"/>
<text text-anchor="start" x="301.75" y="-176.45" font-family="Helvetica,sans-Serif" font-size="14.00">DESCRIPCION_EN</text>
<polygon fill="none" stroke="black" points="296.75,-140.25 296.75,-167.5 495,-167.5 495,-140.25 296.75,-140.25"/>
<text text-anchor="start" x="301.75" y="-149.2" font-family="Helvetica,sans-Serif" font-size="14.00">FECHA_MODIFICACION</text>
<polygon fill="none" stroke="black" points="296.75,-113 296.75,-140.25 495,-140.25 495,-113 296.75,-113"/>
<text text-anchor="start" x="301.75" y="-121.95" font-family="Helvetica,sans-Serif" font-size="14.00">GRANULIDAD</text>
<polygon fill="none" stroke="black" points="296.75,-85.75 296.75,-113 495,-113 495,-85.75 296.75,-85.75"/>
<text text-anchor="start" x="301.75" y="-94.7" font-family="Helvetica,sans-Serif" font-size="14.00">DURACION</text>
<polygon fill="none" stroke="black" points="296.75,-58.5 296.75,-85.75 495,-85.75 495,-58.5 296.75,-58.5"/>
<text text-anchor="start" x="301.75" y="-67.45" font-family="Helvetica,sans-Serif" font-size="14.00">ACTIVO</text>
<polygon fill="none" stroke="black" points="296.75,-31.25 296.75,-58.5 495,-58.5 495,-31.25 296.75,-31.25"/>
<text text-anchor="start" x="301.75" y="-40.2" font-family="Helvetica,sans-Serif" font-size="14.00">VISIBLE</text>
<polygon fill="none" stroke="black" points="296.75,-4 296.75,-31.25 495,-31.25 495,-4 296.75,-4"/>
<text text-anchor="start" x="301.75" y="-12.95" font-family="Helvetica,sans-Serif" font-size="14.00">ATIENDE_MISMA_PERSONA</text>
</g>
<!-- TRES_TIPO_RECURSO&#45;&#45;TRES_RECURSO -->
<g id="edge1" class="edge">
<title>TRES_TIPO_RECURSO&#45;&#45;TRES_RECURSO</title>
<path fill="none" stroke="#7f7f7f" stroke-dasharray="5,2" d="M215.37,-209.5C239.35,-209.5 264.8,-209.5 288.77,-209.5"/>
<text text-anchor="start" x="258.77" y="-196.2" font-family="Times,serif" font-size="14.00">0..N</text>
<text text-anchor="start" x="215.37" y="-196.2" font-family="Times,serif" font-size="14.00">1</text>
</g>
</g>
</svg>
