<?plantuml 1.2026.1?><svg xmlns="http://www.w3.org/2000/svg" xmlns:xlink="http://www.w3.org/1999/xlink" contentStyleType="text/css" data-diagram-type="ACTIVITY" height="686px" preserveAspectRatio="none" style="width:462px;height:686px;" version="1.1" viewBox="0 0 462 686" width="462px" zoomAndPan="magnify"><defs/><g><ellipse cx="220.3325" cy="20" fill="#222222" rx="10" ry="10" style="stroke:#222222;stroke-width:1;"/><rect fill="#FFFFFF" height="33.9688" rx="5" ry="5" style="stroke:#555555;stroke-width:0.5;" width="238.8887" x="100.8882" y="50"/><text fill="#000000" font-family="sans-serif" font-size="12" lengthAdjust="spacing" textLength="218.8887" x="110.8882" y="71.1387">El programador escribe una petici&#243;n</text><rect fill="#F8F9FA" height="47.9375" rx="5" ry="5" style="stroke:#555555;stroke-width:0.5;" width="143.9082" x="148.3784" y="153.9805"/><text fill="#000000" font-family="sans-serif" font-size="12" lengthAdjust="spacing" textLength="116.7246" x="158.3784" y="175.1191">El agente responde</text><text fill="#000000" font-family="sans-serif" font-size="12" lengthAdjust="spacing" textLength="123.9082" x="158.3784" y="189.0879">con su conocimiento</text><ellipse cx="220.3325" cy="234.0469" fill="none" rx="11" ry="11" style="stroke:#222222;stroke-width:1;"/><ellipse cx="220.3325" cy="234.0469" fill="#222222" rx="6" ry="6" style="stroke:#222222;stroke-width:1;"/><polygon fill="#FFFFFF" points="173.1125,103.9688,267.5525,103.9688,279.5525,116.7734,267.5525,129.5781,173.1125,129.5781,161.1125,116.7734,173.1125,103.9688" style="stroke:#555555;stroke-width:0.5;"/><text fill="#000000" font-family="sans-serif" font-size="11" lengthAdjust="spacing" textLength="14.9585" x="224.3325" y="139.7886">No</text><text fill="#000000" font-family="sans-serif" font-size="11" lengthAdjust="spacing" textLength="94.4399" x="173.1125" y="114.1792">&#191;La tarea implica</text><text fill="#000000" font-family="sans-serif" font-size="11" lengthAdjust="spacing" textLength="61.4399" x="173.1125" y="126.9839">c&#243;digo UA?</text><text fill="#000000" font-family="sans-serif" font-size="11" lengthAdjust="spacing" textLength="10.0386" x="279.5525" y="114.1792">S&#237;</text><polygon fill="#FFFFFF" points="179.6465,287.0469,261.0186,287.0469,273.0186,299.8516,261.0186,312.6563,179.6465,312.6563,167.6465,299.8516,179.6465,287.0469" style="stroke:#555555;stroke-width:0.5;"/><text fill="#000000" font-family="sans-serif" font-size="11" lengthAdjust="spacing" textLength="81.3721" x="179.6465" y="297.2573">&#191;Existe un skill</text><text fill="#000000" font-family="sans-serif" font-size="11" lengthAdjust="spacing" textLength="66.4082" x="179.6465" y="310.062">que encaje?</text><text fill="#000000" font-family="sans-serif" font-size="11" lengthAdjust="spacing" textLength="10.0386" x="157.6079" y="297.2573">S&#237;</text><text fill="#000000" font-family="sans-serif" font-size="11" lengthAdjust="spacing" textLength="14.9585" x="273.0186" y="297.2573">No</text><rect fill="#D4EDDA" height="47.9375" rx="5" ry="5" style="stroke:#555555;stroke-width:0.5;" width="155.9961" x="21.7842" y="322.6563"/><text fill="#000000" font-family="sans-serif" font-size="12" lengthAdjust="spacing" textLength="135.9961" x="31.7842" y="343.7949">El agente carga el skill</text><text fill="#000000" font-family="sans-serif" font-size="12" lengthAdjust="spacing" textLength="107.7188" x="31.7842" y="357.7637">y sigue sus reglas</text><rect fill="#CCE5FF" height="47.9375" rx="5" ry="5" style="stroke:#555555;stroke-width:0.5;" width="177.5645" x="11" y="440.6055"/><text fill="#000000" font-family="sans-serif" font-size="12" lengthAdjust="spacing" textLength="127.9629" x="21" y="461.7441">Consulta el MCP para</text><text fill="#000000" font-family="sans-serif" font-size="12" lengthAdjust="spacing" textLength="157.5645" x="21" y="475.7129">obtener docs actualizadas</text><polygon fill="#FFFFFF" points="42.376,390.5938,157.1885,390.5938,169.1885,403.3984,157.1885,416.2031,42.376,416.2031,30.376,403.3984,42.376,390.5938" style="stroke:#555555;stroke-width:0.5;"/><text fill="#000000" font-family="sans-serif" font-size="11" lengthAdjust="spacing" textLength="10.0386" x="103.7822" y="426.4136">S&#237;</text><text fill="#000000" font-family="sans-serif" font-size="11" lengthAdjust="spacing" textLength="104.731" x="42.376" y="400.8042">&#191;Necesita datos de</text><text fill="#000000" font-family="sans-serif" font-size="11" lengthAdjust="spacing" textLength="114.8125" x="42.376" y="413.6089">una librer&#237;a externa?</text><text fill="#000000" font-family="sans-serif" font-size="11" lengthAdjust="spacing" textLength="14.9585" x="169.1885" y="400.8042">No</text><polygon fill="#FFFFFF" points="99.7822,512.9453,111.7822,524.9453,99.7822,536.9453,87.7822,524.9453,99.7822,512.9453" style="stroke:#555555;stroke-width:0.5;"/><rect fill="#D4EDDA" height="47.9375" rx="5" ry="5" style="stroke:#555555;stroke-width:0.5;" width="167.4453" x="16.0596" y="570.9141"/><text fill="#000000" font-family="sans-serif" font-size="12" lengthAdjust="spacing" textLength="147.4453" x="26.0596" y="592.0527">Genera c&#243;digo completo</text><text fill="#000000" font-family="sans-serif" font-size="12" lengthAdjust="spacing" textLength="99.3574" x="26.0596" y="606.0215">con patrones UA</text><ellipse cx="99.7822" cy="664.8516" fill="none" rx="11" ry="11" style="stroke:#222222;stroke-width:1;"/><ellipse cx="99.7822" cy="664.8516" fill="#222222" rx="6" ry="6" style="stroke:#222222;stroke-width:1;"/><rect fill="#F8D7DA" height="47.9375" rx="5" ry="5" style="stroke:#555555;stroke-width:0.5;" width="220.6367" x="230.5645" y="322.6563"/><text fill="#000000" font-family="sans-serif" font-size="12" lengthAdjust="spacing" textLength="146.5313" x="240.5645" y="343.7949">El agente genera c&#243;digo</text><text fill="#000000" font-family="sans-serif" font-size="12" lengthAdjust="spacing" textLength="200.6367" x="240.5645" y="357.7637">gen&#233;rico &#8212; revisar manualmente</text><rect fill="#CCE5FF" height="33.9688" rx="5" ry="5" style="stroke:#555555;stroke-width:0.5;" width="102.3594" x="289.7031" y="440.6055"/><text fill="#000000" font-family="sans-serif" font-size="12" lengthAdjust="spacing" textLength="82.3594" x="299.7031" y="461.7441">Consulta MCP</text><polygon fill="#FFFFFF" points="297.8979,390.5938,383.8677,390.5938,395.8677,403.3984,383.8677,416.2031,297.8979,416.2031,285.8979,403.3984,297.8979,390.5938" style="stroke:#555555;stroke-width:0.5;"/><text fill="#000000" font-family="sans-serif" font-size="11" lengthAdjust="spacing" textLength="10.0386" x="344.8828" y="426.4136">S&#237;</text><text fill="#000000" font-family="sans-serif" font-size="11" lengthAdjust="spacing" textLength="82.4785" x="297.8979" y="400.8042">&#191;Necesita docs</text><text fill="#000000" font-family="sans-serif" font-size="11" lengthAdjust="spacing" textLength="85.9697" x="297.8979" y="413.6089">de una librer&#237;a?</text><text fill="#000000" font-family="sans-serif" font-size="11" lengthAdjust="spacing" textLength="14.9585" x="395.8677" y="400.8042">No</text><polygon fill="#FFFFFF" points="340.8828,498.9766,352.8828,510.9766,340.8828,522.9766,328.8828,510.9766,340.8828,498.9766" style="stroke:#555555;stroke-width:0.5;"/><rect fill="#FFFFFF" height="33.9688" rx="5" ry="5" style="stroke:#555555;stroke-width:0.5;" width="127.2559" x="277.2549" y="556.9453"/><text fill="#000000" font-family="sans-serif" font-size="12" lengthAdjust="spacing" textLength="107.2559" x="287.2549" y="578.084">Genera respuesta</text><ellipse cx="340.8828" cy="636.9141" fill="none" rx="11" ry="11" style="stroke:#222222;stroke-width:1;"/><ellipse cx="340.8828" cy="636.9141" fill="#222222" rx="6" ry="6" style="stroke:#222222;stroke-width:1;"/><line style="stroke:#181818;stroke-width:1;" x1="220.3325" x2="220.3325" y1="30" y2="50"/><polygon fill="#181818" points="216.3325,40,220.3325,50,224.3325,40,220.3325,44" style="stroke:#181818;stroke-width:1;"/><line style="stroke:#181818;stroke-width:1;" x1="220.3325" x2="220.3325" y1="201.918" y2="223.0469"/><polygon fill="#181818" points="216.3325,213.0469,220.3325,223.0469,224.3325,213.0469,220.3325,217.0469" style="stroke:#181818;stroke-width:1;"/><line style="stroke:#181818;stroke-width:1;" x1="220.3325" x2="220.3325" y1="129.5781" y2="153.9805"/><polygon fill="#181818" points="216.3325,143.9805,220.3325,153.9805,224.3325,143.9805,220.3325,147.9805" style="stroke:#181818;stroke-width:1;"/><line style="stroke:#181818;stroke-width:1;" x1="279.5525" x2="302.2866" y1="116.7734" y2="116.7734"/><polygon fill="#181818" points="298.2866,193.0469,302.2866,203.0469,306.2866,193.0469,302.2866,197.0469" style="stroke:#181818;stroke-width:1;"/><line style="stroke:#181818;stroke-width:1;" x1="302.2866" x2="302.2866" y1="116.7734" y2="267.0469"/><line style="stroke:#181818;stroke-width:1;" x1="302.2866" x2="220.3325" y1="267.0469" y2="267.0469"/><line style="stroke:#181818;stroke-width:1;" x1="220.3325" x2="220.3325" y1="267.0469" y2="287.0469"/><polygon fill="#181818" points="216.3325,277.0469,220.3325,287.0469,224.3325,277.0469,220.3325,281.0469" style="stroke:#181818;stroke-width:1;"/><line style="stroke:#181818;stroke-width:1;" x1="220.3325" x2="220.3325" y1="83.9688" y2="103.9688"/><polygon fill="#181818" points="216.3325,93.9688,220.3325,103.9688,224.3325,93.9688,220.3325,97.9688" style="stroke:#181818;stroke-width:1;"/><line style="stroke:#181818;stroke-width:1;" x1="99.7822" x2="99.7822" y1="416.2031" y2="440.6055"/><polygon fill="#181818" points="95.7822,430.6055,99.7822,440.6055,103.7822,430.6055,99.7822,434.6055" style="stroke:#181818;stroke-width:1;"/><line style="stroke:#181818;stroke-width:1;" x1="169.1885" x2="198.5645" y1="403.3984" y2="403.3984"/><polygon fill="#181818" points="194.5645,454.1719,198.5645,464.1719,202.5645,454.1719,198.5645,458.1719" style="stroke:#181818;stroke-width:1;"/><line style="stroke:#181818;stroke-width:1;" x1="198.5645" x2="198.5645" y1="403.3984" y2="524.9453"/><line style="stroke:#181818;stroke-width:1;" x1="198.5645" x2="111.7822" y1="524.9453" y2="524.9453"/><polygon fill="#181818" points="121.7822,520.9453,111.7822,524.9453,121.7822,528.9453,117.7822,524.9453" style="stroke:#181818;stroke-width:1;"/><line style="stroke:#181818;stroke-width:1;" x1="99.7822" x2="99.7822" y1="488.543" y2="512.9453"/><polygon fill="#181818" points="95.7822,502.9453,99.7822,512.9453,103.7822,502.9453,99.7822,506.9453" style="stroke:#181818;stroke-width:1;"/><line style="stroke:#181818;stroke-width:1;" x1="99.7822" x2="99.7822" y1="370.5938" y2="390.5938"/><polygon fill="#181818" points="95.7822,380.5938,99.7822,390.5938,103.7822,380.5938,99.7822,384.5938" style="stroke:#181818;stroke-width:1;"/><line style="stroke:#181818;stroke-width:1;" x1="99.7822" x2="99.7822" y1="536.9453" y2="570.9141"/><polygon fill="#181818" points="95.7822,560.9141,99.7822,570.9141,103.7822,560.9141,99.7822,564.9141" style="stroke:#181818;stroke-width:1;"/><line style="stroke:#181818;stroke-width:1;" x1="99.7822" x2="99.7822" y1="618.8516" y2="653.8516"/><polygon fill="#181818" points="95.7822,643.8516,99.7822,653.8516,103.7822,643.8516,99.7822,647.8516" style="stroke:#181818;stroke-width:1;"/><line style="stroke:#181818;stroke-width:1;" x1="340.8828" x2="340.8828" y1="416.2031" y2="440.6055"/><polygon fill="#181818" points="336.8828,430.6055,340.8828,440.6055,344.8828,430.6055,340.8828,434.6055" style="stroke:#181818;stroke-width:1;"/><line style="stroke:#181818;stroke-width:1;" x1="395.8677" x2="407.8677" y1="403.3984" y2="403.3984"/><polygon fill="#181818" points="403.8677,447.1875,407.8677,457.1875,411.8677,447.1875,407.8677,451.1875" style="stroke:#181818;stroke-width:1;"/><line style="stroke:#181818;stroke-width:1;" x1="407.8677" x2="407.8677" y1="403.3984" y2="510.9766"/><line style="stroke:#181818;stroke-width:1;" x1="407.8677" x2="352.8828" y1="510.9766" y2="510.9766"/><polygon fill="#181818" points="362.8828,506.9766,352.8828,510.9766,362.8828,514.9766,358.8828,510.9766" style="stroke:#181818;stroke-width:1;"/><line style="stroke:#181818;stroke-width:1;" x1="340.8828" x2="340.8828" y1="474.5742" y2="498.9766"/><polygon fill="#181818" points="336.8828,488.9766,340.8828,498.9766,344.8828,488.9766,340.8828,492.9766" style="stroke:#181818;stroke-width:1;"/><line style="stroke:#181818;stroke-width:1;" x1="340.8828" x2="340.8828" y1="370.5938" y2="390.5938"/><polygon fill="#181818" points="336.8828,380.5938,340.8828,390.5938,344.8828,380.5938,340.8828,384.5938" style="stroke:#181818;stroke-width:1;"/><line style="stroke:#181818;stroke-width:1;" x1="340.8828" x2="340.8828" y1="522.9766" y2="556.9453"/><polygon fill="#181818" points="336.8828,546.9453,340.8828,556.9453,344.8828,546.9453,340.8828,550.9453" style="stroke:#181818;stroke-width:1;"/><line style="stroke:#181818;stroke-width:1;" x1="340.8828" x2="340.8828" y1="590.9141" y2="625.9141"/><polygon fill="#181818" points="336.8828,615.9141,340.8828,625.9141,344.8828,615.9141,340.8828,619.9141" style="stroke:#181818;stroke-width:1;"/><line style="stroke:#181818;stroke-width:1;" x1="167.6465" x2="99.7822" y1="299.8516" y2="299.8516"/><line style="stroke:#181818;stroke-width:1;" x1="99.7822" x2="99.7822" y1="299.8516" y2="322.6563"/><polygon fill="#181818" points="95.7822,312.6563,99.7822,322.6563,103.7822,312.6563,99.7822,316.6563" style="stroke:#181818;stroke-width:1;"/><line style="stroke:#181818;stroke-width:1;" x1="273.0186" x2="340.8828" y1="299.8516" y2="299.8516"/><line style="stroke:#181818;stroke-width:1;" x1="340.8828" x2="340.8828" y1="299.8516" y2="322.6563"/><polygon fill="#181818" points="336.8828,312.6563,340.8828,322.6563,344.8828,312.6563,340.8828,316.6563" style="stroke:#181818;stroke-width:1;"/><?plantuml-src ZPAnRXH138RxVGfBD7STI4H0Kg3aY6WWGa9qr_Xcl8l9hBsCPwE4YeVW9IXIvG6Gs3VXIV3kvIxSwH1CirgDV__-FuzTidIOiOKLXiicQozneKapb8nYVaLIAjjMdOR2LrnkplQg7zNJELIfELA-hpgQpe6gLuojIlnts-aoQ1RAyEHnLLd1NAhZymHTriOhCBgEB6HU4VI2q57XmCETd5GLrp3x-UCDWgi8WTikSS2bXE4kSgFmuVJb7Cf74fXTwBm27-1v_QB6iJysZe8WatK-ARb81Qm7_sZWblrMJrnYHRkAaX7CtW-tyueaShsnFhzcA-DSu95IMihdde0au2VQEaygjuvFASO_hGFc1e7IHdi3nethhJSVgqbe7X5WxNH1WOmBGiIY1kF08ut4gqnvkFK-ruMouBwj6uT0HtLzl52nFfN9yUtY7OmBM8gk2etmemO33AN7n5ymZju0wzXhTFUv7uAy7dK86zP1dJuLNOFii6GLCb_17iJj8kAp7HhDJhkb-F_mFNDG-FNrc_EuOiCCBOfFs8wAWt0ynTAt2Jji_eE90_bhu4tIyQdqv2_q8T5KyXi0?></g></svg>