<svg xmlns="http://www.w3.org/2000/svg" width="528" height="224" class="svgbob">
  <style>.svgbob line, .svgbob path, .svgbob circle, .svgbob rect, .svgbob polygon {
  stroke: black;
  stroke-width: 2;
  stroke-opacity: 1;
  fill-opacity: 1;
  stroke-linecap: round;
  stroke-linejoin: miter;
}

.svgbob text {
  white-space: pre;
  fill: black;
  font-family: Iosevka Fixed, monospace;
  font-size: 14px;
}

.svgbob rect.backdrop {
  stroke: none;
  fill: white;
}

.svgbob .broken {
  stroke-dasharray: 8;
}

.svgbob .filled {
  fill: black;
}

.svgbob .bg_filled {
  fill: white;
  stroke-width: 1;
}

.svgbob .nofill {
  fill: white;
}

.svgbob .end_marked_arrow {
  marker-end: url(#arrow);
}

.svgbob .start_marked_arrow {
  marker-start: url(#arrow);
}

.svgbob .end_marked_diamond {
  marker-end: url(#diamond);
}

.svgbob .start_marked_diamond {
  marker-start: url(#diamond);
}

.svgbob .end_marked_circle {
  marker-end: url(#circle);
}

.svgbob .start_marked_circle {
  marker-start: url(#circle);
}

.svgbob .end_marked_open_circle {
  marker-end: url(#open_circle);
}

.svgbob .start_marked_open_circle {
  marker-start: url(#open_circle);
}

.svgbob .end_marked_big_open_circle {
  marker-end: url(#big_open_circle);
}

.svgbob .start_marked_big_open_circle {
  marker-start: url(#big_open_circle);
}

</style>
  <defs>
    <marker id="arrow" viewBox="-2 -2 8 8" refX="4" refY="2" markerWidth="7" markerHeight="7" orient="auto-start-reverse">
      <polygon points="0,0 0,4 4,2 0,0"></polygon>
    </marker>
    <marker id="diamond" viewBox="-2 -2 8 8" refX="4" refY="2" markerWidth="7" markerHeight="7" orient="auto-start-reverse">
      <polygon points="0,2 2,0 4,2 2,4 0,2"></polygon>
    </marker>
    <marker id="circle" viewBox="0 0 8 8" refX="4" refY="4" markerWidth="7" markerHeight="7" orient="auto-start-reverse">
      <circle cx="4" cy="4" r="2" class="filled"></circle>
    </marker>
    <marker id="open_circle" viewBox="0 0 8 8" refX="4" refY="4" markerWidth="7" markerHeight="7" orient="auto-start-reverse">
      <circle cx="4" cy="4" r="2" class="bg_filled"></circle>
    </marker>
    <marker id="big_open_circle" viewBox="0 0 8 8" refX="4" refY="4" markerWidth="7" markerHeight="7" orient="auto-start-reverse">
      <circle cx="4" cy="4" r="3" class="bg_filled"></circle>
    </marker>
  </defs>
  <rect class="backdrop" x="0" y="0" width="528" height="224"></rect>
  <text x="2" y="12" >ANTES</text>
  <text x="266" y="12" >DESPUES</text>
  <text x="330" y="12" >de</text>
  <path d="M 272,16 A 16,16 0,0,0 272,32" class="nofill"></path>
  <text x="274" y="28" >con</text>
  <text x="306" y="28" >:key</text>
  <line x1="336" y1="22" x2="344" y2="22" class="solid"></line>
  <line x1="336" y1="26" x2="344" y2="26" class="solid"></line>
  <text x="354" y="12" >borrar</text>
  <text x="410" y="12" >B</text>
  <path d="M 400,16 A 16,16 0,0,1 400,32" class="nofill"></path>
  <text x="18" y="76" >0</text>
  <text x="58" y="76" >A</text>
  <text x="18" y="108" >1</text>
  <text x="58" y="108" >B</text>
  <text x="18" y="140" >2</text>
  <text x="58" y="140" >C</text>
  <text x="282" y="76" >0</text>
  <text x="322" y="76" >A</text>
  <text x="282" y="108" >1</text>
  <text x="322" y="108" >C</text>
  <text x="98" y="76" >foco</text>
  <text x="138" y="76" >activo</text>
  <text x="362" y="76" >foco</text>
  <text x="402" y="76" >activo</text>
  <text x="98" y="108" >texto</text>
  <text x="362" y="108" >texto</text>
  <path d="M 400,112 A 16,16 0,0,0 400,128" class="nofill"></path>
  <text x="402" y="124" >era</text>
  <path d="M 504,96 A 16,16 0,0,0 504,112" class="nofill"></path>
  <text x="506" y="108" >!</text>
  <path d="M 512,96 A 16,16 0,0,1 512,112" class="nofill"></path>
  <text x="434" y="124" >de</text>
  <text x="458" y="124" >B</text>
  <path d="M 464,112 A 16,16 0,0,1 464,128" class="nofill"></path>
  <line x1="96" y1="136" x2="104" y2="136" class="solid"></line>
  <text x="2" y="188" >Vue</text>
  <text x="34" y="188" >ve</text>
  <text x="58" y="188" >la</text>
  <text x="82" y="188" >misma</text>
  <text x="130" y="188" >clave</text>
  <text x="178" y="188" >1,</text>
  <text x="202" y="188" >decide</text>
  <text x="2" y="204" >y</text>
  <text x="18" y="204" >conserva</text>
  <text x="90" y="204" >el</text>
  <text x="114" y="204" >estado</text>
  <text x="170" y="204" >interno</text>
  <text x="234" y="204" >de</text>
  <text x="258" y="188" >REUTILIZAR</text>
  <text x="346" y="188" >el</text>
  <text x="370" y="188" >&lt;input&gt;,</text>
  <text x="258" y="204" >B</text>
  <text x="274" y="204" >en</text>
  <text x="298" y="204" >lo</text>
  <text x="322" y="204" >que</text>
  <text x="354" y="204" >ahora</text>
  <text x="402" y="204" >es</text>
  <text x="426" y="204" >C.</text>
  <text x="346" y="28" >index</text>
  <text x="146" y="108" >editando</text>
  <text x="410" y="108" >editando</text>
  <g>
    <line x1="4" y1="56" x2="76" y2="56" class="solid"></line>
    <line x1="4" y1="56" x2="4" y2="152" class="solid"></line>
    <line x1="44" y1="56" x2="44" y2="152" class="solid"></line>
    <line x1="76" y1="56" x2="76" y2="152" class="solid"></line>
    <line x1="4" y1="88" x2="76" y2="88" class="solid"></line>
    <line x1="4" y1="120" x2="76" y2="120" class="solid"></line>
    <line x1="4" y1="152" x2="76" y2="152" class="solid"></line>
  </g>
  <g>
    <line x1="268" y1="56" x2="340" y2="56" class="solid"></line>
    <line x1="268" y1="56" x2="268" y2="120" class="solid"></line>
    <line x1="308" y1="56" x2="308" y2="120" class="solid"></line>
    <line x1="340" y1="56" x2="340" y2="120" class="solid"></line>
    <line x1="268" y1="88" x2="340" y2="88" class="solid"></line>
    <line x1="268" y1="120" x2="340" y2="120" class="solid"></line>
  </g>
</svg>
