<?xml version="1.0" encoding="UTF-8" standalone="no"?>
<!DOCTYPE svg PUBLIC "-//W3C//DTD SVG 1.1//EN"
 "http://www.w3.org/Graphics/SVG/1.1/DTD/svg11.dtd">
<!-- Generated by graphviz version 9.0.0 (20230911.1827)
 -->
<!-- Title: estado Pages: 1 -->
<svg width="836pt" height="534pt"
 viewBox="0.00 0.00 836.38 534.25" xmlns="http://www.w3.org/2000/svg" xmlns:xlink="http://www.w3.org/1999/xlink">
<g id="graph0" class="graph" transform="scale(1 1) rotate(0) translate(4 530.25)">
<title>estado</title>
<polygon fill="white" stroke="none" points="-4,4 -4,-530.25 832.38,-530.25 832.38,4 -4,4"/>
<!-- Q1 -->
<g id="node1" class="node">
<title>Q1</title>
<polygon fill="none" stroke="black" points="538.88,-526.25 363.12,-466.5 538.87,-406.75 714.62,-466.5 538.88,-526.25"/>
<text text-anchor="middle" x="538.88" y="-479.07" font-family="Helvetica,sans-Serif" font-size="14.00">¿Lo necesitan</text>
<text text-anchor="middle" x="538.88" y="-461.82" font-family="Helvetica,sans-Serif" font-size="14.00">VARIOS componentes</text>
<text text-anchor="middle" x="538.88" y="-444.57" font-family="Helvetica,sans-Serif" font-size="14.00">sin relacion padre/hijo?</text>
</g>
<!-- Q2 -->
<g id="node2" class="node">
<title>Q2</title>
<polygon fill="none" stroke="black" points="310.88,-353.5 178.63,-293.75 310.87,-234 443.12,-293.75 310.88,-353.5"/>
<text text-anchor="middle" x="310.88" y="-306.32" font-family="Helvetica,sans-Serif" font-size="14.00">¿Debe sobrevivir</text>
<text text-anchor="middle" x="310.88" y="-289.07" font-family="Helvetica,sans-Serif" font-size="14.00">a un F5 / cierre</text>
<text text-anchor="middle" x="310.88" y="-271.82" font-family="Helvetica,sans-Serif" font-size="14.00">del navegador?</text>
</g>
<!-- Q1&#45;&gt;Q2 -->
<g id="edge3" class="edge">
<title>Q1&#45;&gt;Q2</title>
<path fill="none" stroke="black" d="M466.6,-431.05C444.29,-419.01 420.26,-404.52 399.88,-388.75 383.68,-376.22 367.74,-360.7 353.92,-345.9"/>
<polygon fill="black" stroke="black" points="356.83,-343.9 347.5,-338.9 351.67,-348.63 356.83,-343.9"/>
<text text-anchor="middle" x="467.38" y="-375.45" font-family="Times,serif" font-size="14.00"> si, independientes</text>
</g>
<!-- LOCAL -->
<g id="node4" class="node">
<title>LOCAL</title>
<path fill="#e8f5e9" stroke="black" d="M604.25,-315C604.25,-315 473.5,-315 473.5,-315 467.5,-315 461.5,-309 461.5,-303 461.5,-303 461.5,-284.5 461.5,-284.5 461.5,-278.5 467.5,-272.5 473.5,-272.5 473.5,-272.5 604.25,-272.5 604.25,-272.5 610.25,-272.5 616.25,-278.5 616.25,-284.5 616.25,-284.5 616.25,-303 616.25,-303 616.25,-309 610.25,-315 604.25,-315"/>
<text text-anchor="middle" x="538.88" y="-297.7" font-family="Helvetica,sans-Serif" font-size="14.00">ref / reactive</text>
<text text-anchor="middle" x="538.88" y="-280.45" font-family="Helvetica,sans-Serif" font-size="14.00">local al componente</text>
</g>
<!-- Q1&#45;&gt;LOCAL -->
<g id="edge1" class="edge">
<title>Q1&#45;&gt;LOCAL</title>
<path fill="none" stroke="black" d="M538.88,-406.26C538.88,-379.6 538.88,-349.18 538.88,-326.86"/>
<polygon fill="black" stroke="black" points="542.38,-326.88 538.88,-316.88 535.38,-326.88 542.38,-326.88"/>
<text text-anchor="middle" x="623.62" y="-375.45" font-family="Times,serif" font-size="14.00"> no, mismo componente</text>
</g>
<!-- PROPS -->
<g id="node5" class="node">
<title>PROPS</title>
<path fill="#fff3e0" stroke="black" d="M781.12,-315C781.12,-315 682.62,-315 682.62,-315 676.62,-315 670.62,-309 670.62,-303 670.62,-303 670.62,-284.5 670.62,-284.5 670.62,-278.5 676.62,-272.5 682.62,-272.5 682.62,-272.5 781.12,-272.5 781.12,-272.5 787.12,-272.5 793.12,-278.5 793.12,-284.5 793.12,-284.5 793.12,-303 793.12,-303 793.12,-309 787.12,-315 781.12,-315"/>
<text text-anchor="middle" x="731.88" y="-297.7" font-family="Helvetica,sans-Serif" font-size="14.00">props + emits</text>
<text text-anchor="middle" x="731.88" y="-280.45" font-family="Helvetica,sans-Serif" font-size="14.00">o provide/inject</text>
</g>
<!-- Q1&#45;&gt;PROPS -->
<g id="edge2" class="edge">
<title>Q1&#45;&gt;PROPS</title>
<path fill="none" stroke="black" d="M636.49,-439.61C663.69,-428.08 690.94,-411.72 709.88,-388.75 724.16,-371.43 729.52,-346.49 731.38,-326.66"/>
<polygon fill="black" stroke="black" points="734.86,-327.09 732.03,-316.89 727.87,-326.63 734.86,-327.09"/>
<text text-anchor="middle" x="773.62" y="-375.45" font-family="Times,serif" font-size="14.00"> padre &lt;&#45;&gt; hijo</text>
</g>
<!-- Q3 -->
<g id="node3" class="node">
<title>Q3</title>
<polygon fill="none" stroke="black" points="185.88,-180.75 25.88,-138.25 185.87,-95.75 345.88,-138.25 185.88,-180.75"/>
<text text-anchor="middle" x="185.88" y="-142.2" font-family="Helvetica,sans-Serif" font-size="14.00">¿Debe sobrevivir</text>
<text text-anchor="middle" x="185.88" y="-124.95" font-family="Helvetica,sans-Serif" font-size="14.00">al cierre de pestaña?</text>
</g>
<!-- Q2&#45;&gt;Q3 -->
<g id="edge5" class="edge">
<title>Q2&#45;&gt;Q3</title>
<path fill="none" stroke="black" d="M275.72,-249.58C258.54,-228.48 237.91,-203.15 220.76,-182.09"/>
<polygon fill="black" stroke="black" points="223.63,-180.07 214.6,-174.53 218.2,-184.49 223.63,-180.07"/>
<text text-anchor="middle" x="257.12" y="-202.7" font-family="Times,serif" font-size="14.00"> si</text>
</g>
<!-- PINIA -->
<g id="node6" class="node">
<title>PINIA</title>
<path fill="#e3f2fd" stroke="black" d="M493.88,-159.5C493.88,-159.5 375.88,-159.5 375.88,-159.5 369.88,-159.5 363.88,-153.5 363.88,-147.5 363.88,-147.5 363.88,-129 363.88,-129 363.88,-123 369.88,-117 375.88,-117 375.88,-117 493.88,-117 493.88,-117 499.88,-117 505.88,-123 505.88,-129 505.88,-129 505.88,-147.5 505.88,-147.5 505.88,-153.5 499.88,-159.5 493.88,-159.5"/>
<text text-anchor="middle" x="434.88" y="-142.2" font-family="Helvetica,sans-Serif" font-size="14.00">Pinia store</text>
<text text-anchor="middle" x="434.88" y="-124.95" font-family="Helvetica,sans-Serif" font-size="14.00">(solo en memoria)</text>
</g>
<!-- Q2&#45;&gt;PINIA -->
<g id="edge4" class="edge">
<title>Q2&#45;&gt;PINIA</title>
<path fill="none" stroke="black" d="M345.75,-249.58C366.65,-223.71 392.67,-191.49 411.2,-168.56"/>
<polygon fill="black" stroke="black" points="413.88,-170.81 417.44,-160.83 408.43,-166.41 413.88,-170.81"/>
<text text-anchor="middle" x="395.75" y="-202.7" font-family="Times,serif" font-size="14.00"> no</text>
</g>
<!-- SESS -->
<g id="node7" class="node">
<title>SESS</title>
<path fill="#e1f5fe" stroke="black" d="M157.75,-42.5C157.75,-42.5 12,-42.5 12,-42.5 6,-42.5 0,-36.5 0,-30.5 0,-30.5 0,-12 0,-12 0,-6 6,0 12,0 12,0 157.75,0 157.75,0 163.75,0 169.75,-6 169.75,-12 169.75,-12 169.75,-30.5 169.75,-30.5 169.75,-36.5 163.75,-42.5 157.75,-42.5"/>
<text text-anchor="middle" x="84.88" y="-25.2" font-family="Helvetica,sans-Serif" font-size="14.00">sessionStorage</text>
<text text-anchor="middle" x="84.88" y="-7.95" font-family="Helvetica,sans-Serif" font-size="14.00">(persiste por pestaña)</text>
</g>
<!-- Q3&#45;&gt;SESS -->
<g id="edge6" class="edge">
<title>Q3&#45;&gt;SESS</title>
<path fill="none" stroke="black" d="M156.12,-103.37C141.59,-86.82 124.28,-67.12 110.36,-51.27"/>
<polygon fill="black" stroke="black" points="113.25,-49.25 104.02,-44.05 107.99,-53.87 113.25,-49.25"/>
<text text-anchor="middle" x="143.75" y="-64.45" font-family="Times,serif" font-size="14.00"> no</text>
</g>
<!-- LOCS -->
<g id="node8" class="node">
<title>LOCS</title>
<path fill="#c8e6c9" stroke="black" d="M375.75,-42.5C375.75,-42.5 200,-42.5 200,-42.5 194,-42.5 188,-36.5 188,-30.5 188,-30.5 188,-12 188,-12 188,-6 194,0 200,0 200,0 375.75,0 375.75,0 381.75,0 387.75,-6 387.75,-12 387.75,-12 387.75,-30.5 387.75,-30.5 387.75,-36.5 381.75,-42.5 375.75,-42.5"/>
<text text-anchor="middle" x="287.88" y="-25.2" font-family="Helvetica,sans-Serif" font-size="14.00">localStorage</text>
<text text-anchor="middle" x="287.88" y="-7.95" font-family="Helvetica,sans-Serif" font-size="14.00">(persiste indefinidamente)</text>
</g>
<!-- Q3&#45;&gt;LOCS -->
<g id="edge7" class="edge">
<title>Q3&#45;&gt;LOCS</title>
<path fill="none" stroke="black" d="M215.93,-103.37C230.6,-86.82 248.08,-67.12 262.14,-51.27"/>
<polygon fill="black" stroke="black" points="264.53,-53.85 268.55,-44.04 259.29,-49.2 264.53,-53.85"/>
<text text-anchor="middle" x="261.12" y="-64.45" font-family="Times,serif" font-size="14.00"> si</text>
</g>
</g>
</svg>
