<?xml version="1.0" encoding="UTF-8" standalone="no"?>
<!DOCTYPE svg PUBLIC "-//W3C//DTD SVG 1.1//EN"
 "http://www.w3.org/Graphics/SVG/1.1/DTD/svg11.dtd">
<!-- Generated by graphviz version 9.0.0 (20230911.1827)
 -->
<!-- Title: G Pages: 1 -->
<svg width="994pt" height="155pt"
 viewBox="0.00 0.00 994.00 155.00" xmlns="http://www.w3.org/2000/svg" xmlns:xlink="http://www.w3.org/1999/xlink">
<g id="graph0" class="graph" transform="scale(1 1) rotate(0) translate(4 151)">
<title>G</title>
<g id="clust1" class="cluster">
<title>cluster_skills</title>
<path fill="#d4edda" stroke="#28a745" d="M20,-64C20,-64 388,-64 388,-64 394,-64 400,-70 400,-76 400,-76 400,-127 400,-127 400,-133 394,-139 388,-139 388,-139 20,-139 20,-139 14,-139 8,-133 8,-127 8,-127 8,-76 8,-76 8,-70 14,-64 20,-64"/>
<text text-anchor="middle" x="204" y="-121.7" font-family="Helvetica Bold" font-size="14.00">1. Skills UA</text>
</g>
<g id="clust2" class="cluster">
<title>cluster_mcp</title>
<path fill="#cce5ff" stroke="#0d6efd" d="M420,-64C420,-64 710,-64 710,-64 716,-64 722,-70 722,-76 722,-76 722,-127 722,-127 722,-133 716,-139 710,-139 710,-139 420,-139 420,-139 414,-139 408,-133 408,-127 408,-127 408,-76 408,-76 408,-70 414,-64 420,-64"/>
<text text-anchor="middle" x="565" y="-121.7" font-family="Helvetica Bold" font-size="14.00">2. Servidores MCP</text>
</g>
<g id="clust3" class="cluster">
<title>cluster_oracle</title>
<path fill="#fff3cd" stroke="#ffc107" d="M742,-64C742,-64 966,-64 966,-64 972,-64 978,-70 978,-76 978,-76 978,-127 978,-127 978,-133 972,-139 966,-139 966,-139 742,-139 742,-139 736,-139 730,-133 730,-127 730,-127 730,-76 730,-76 730,-70 736,-64 742,-64"/>
<text text-anchor="middle" x="854" y="-121.7" font-family="Helvetica Bold" font-size="14.00">3. Contexto Oracle</text>
</g>
<!-- S1 -->
<g id="node1" class="node">
<title>S1</title>
<path fill="#ffffff" stroke="black" d="M380.25,-108C380.25,-108 311.75,-108 311.75,-108 305.75,-108 299.75,-102 299.75,-96 299.75,-96 299.75,-84 299.75,-84 299.75,-78 305.75,-72 311.75,-72 311.75,-72 380.25,-72 380.25,-72 386.25,-72 392.25,-78 392.25,-84 392.25,-84 392.25,-96 392.25,-96 392.25,-102 386.25,-108 380.25,-108"/>
<text text-anchor="middle" x="346" y="-93.05" font-family="Helvetica,sans-Serif" font-size="11.00">Convenciones</text>
<text text-anchor="middle" x="346" y="-79.55" font-family="Helvetica,sans-Serif" font-size="11.00">de nombres</text>
</g>
<!-- R -->
<g id="node11" class="node">
<title>R</title>
<path fill="#d4edda" stroke="#28a745" stroke-width="2" d="M561.38,-36C561.38,-36 466.62,-36 466.62,-36 460.62,-36 454.62,-30 454.62,-24 454.62,-24 454.62,-12 454.62,-12 454.62,-6 460.62,0 466.62,0 466.62,0 561.38,0 561.38,0 567.38,0 573.38,-6 573.38,-12 573.38,-12 573.38,-24 573.38,-24 573.38,-30 567.38,-36 561.38,-36"/>
<text text-anchor="middle" x="514" y="-21.05" font-family="Helvetica,sans-Serif" font-size="11.00">Código generado</text>
<text text-anchor="middle" x="514" y="-7.55" font-family="Helvetica,sans-Serif" font-size="11.00">alineado con la UA</text>
</g>
<!-- S1&#45;&gt;R -->
<g id="edge1" class="edge">
<title>S1&#45;&gt;R</title>
<path fill="none" stroke="#666666" d="M386.21,-71.55C392.17,-69 398.24,-66.42 404,-64 421.8,-56.52 441.29,-48.5 458.85,-41.33"/>
<polygon fill="#666666" stroke="#666666" points="460.16,-44.57 468.1,-37.56 457.52,-38.09 460.16,-44.57"/>
</g>
<!-- S2 -->
<g id="node2" class="node">
<title>S2</title>
<path fill="#ffffff" stroke="black" d="M270.12,-108C270.12,-108 209.88,-108 209.88,-108 203.88,-108 197.88,-102 197.88,-96 197.88,-96 197.88,-84 197.88,-84 197.88,-78 203.88,-72 209.88,-72 209.88,-72 270.12,-72 270.12,-72 276.12,-72 282.12,-78 282.12,-84 282.12,-84 282.12,-96 282.12,-96 282.12,-102 276.12,-108 270.12,-108"/>
<text text-anchor="middle" x="240" y="-93.05" font-family="Helvetica,sans-Serif" font-size="11.00">Arquitectura</text>
<text text-anchor="middle" x="240" y="-79.55" font-family="Helvetica,sans-Serif" font-size="11.00">de capas</text>
</g>
<!-- S2&#45;&gt;R -->
<g id="edge2" class="edge">
<title>S2&#45;&gt;R</title>
<path fill="none" stroke="#666666" d="M272.4,-71.59C278.46,-68.77 284.84,-66.09 291,-64 340.37,-47.23 398.12,-35.79 442.48,-28.64"/>
<polygon fill="#666666" stroke="#666666" points="442.91,-32.12 452.25,-27.11 441.83,-25.2 442.91,-32.12"/>
</g>
<!-- S3 -->
<g id="node3" class="node">
<title>S3</title>
<path fill="#ffffff" stroke="black" d="M167.62,-108C167.62,-108 122.38,-108 122.38,-108 116.38,-108 110.38,-102 110.38,-96 110.38,-96 110.38,-84 110.38,-84 110.38,-78 116.38,-72 122.38,-72 122.38,-72 167.62,-72 167.62,-72 173.62,-72 179.62,-78 179.62,-84 179.62,-84 179.62,-96 179.62,-96 179.62,-102 173.62,-108 167.62,-108"/>
<text text-anchor="middle" x="145" y="-93.05" font-family="Helvetica,sans-Serif" font-size="11.00">Patrones</text>
<text text-anchor="middle" x="145" y="-79.55" font-family="Helvetica,sans-Serif" font-size="11.00">de código</text>
</g>
<!-- S3&#45;&gt;R -->
<g id="edge3" class="edge">
<title>S3&#45;&gt;R</title>
<path fill="none" stroke="#666666" d="M171.71,-71.72C177.25,-68.74 183.18,-65.98 189,-64 273.14,-35.45 375.39,-24.98 442.46,-21.17"/>
<polygon fill="#666666" stroke="#666666" points="442.42,-24.67 452.22,-20.65 442.05,-17.68 442.42,-24.67"/>
</g>
<!-- S4 -->
<g id="node4" class="node">
<title>S4</title>
<path fill="#ffffff" stroke="black" d="M80.38,-108C80.38,-108 27.62,-108 27.62,-108 21.62,-108 15.62,-102 15.62,-96 15.62,-96 15.62,-84 15.62,-84 15.62,-78 21.62,-72 27.62,-72 27.62,-72 80.38,-72 80.38,-72 86.38,-72 92.38,-78 92.38,-84 92.38,-84 92.38,-96 92.38,-96 92.38,-102 86.38,-108 80.38,-108"/>
<text text-anchor="middle" x="54" y="-93.05" font-family="Helvetica,sans-Serif" font-size="11.00">Estructura</text>
<text text-anchor="middle" x="54" y="-79.55" font-family="Helvetica,sans-Serif" font-size="11.00">de ficheros</text>
</g>
<!-- S4&#45;&gt;R -->
<g id="edge4" class="edge">
<title>S4&#45;&gt;R</title>
<path fill="none" stroke="#666666" d="M82.59,-71.6C88.5,-68.64 94.82,-65.9 101,-64 216.87,-28.32 358.64,-20.1 442.34,-18.65"/>
<polygon fill="#666666" stroke="#666666" points="442.29,-22.15 452.24,-18.51 442.19,-15.16 442.29,-22.15"/>
</g>
<!-- M1 -->
<g id="node5" class="node">
<title>M1</title>
<path fill="#ffffff" stroke="black" d="M701.75,-108C701.75,-108 624.25,-108 624.25,-108 618.25,-108 612.25,-102 612.25,-96 612.25,-96 612.25,-84 612.25,-84 612.25,-78 618.25,-72 624.25,-72 624.25,-72 701.75,-72 701.75,-72 707.75,-72 713.75,-78 713.75,-84 713.75,-84 713.75,-96 713.75,-96 713.75,-102 707.75,-108 701.75,-108"/>
<text text-anchor="middle" x="663" y="-93.05" font-family="Helvetica,sans-Serif" font-size="11.00">Documentación</text>
<text text-anchor="middle" x="663" y="-79.55" font-family="Helvetica,sans-Serif" font-size="11.00">actualizada</text>
</g>
<!-- M1&#45;&gt;R -->
<g id="edge5" class="edge">
<title>M1&#45;&gt;R</title>
<path fill="none" stroke="#666666" d="M625.79,-71.52C606.7,-62.55 583.22,-51.52 562.71,-41.88"/>
<polygon fill="#666666" stroke="#666666" points="564.2,-38.72 553.67,-37.63 561.23,-45.05 564.2,-38.72"/>
</g>
<!-- M2 -->
<g id="node6" class="node">
<title>M2</title>
<path fill="#ffffff" stroke="black" d="M582.62,-108C582.62,-108 543.38,-108 543.38,-108 537.38,-108 531.38,-102 531.38,-96 531.38,-96 531.38,-84 531.38,-84 531.38,-78 537.38,-72 543.38,-72 543.38,-72 582.62,-72 582.62,-72 588.62,-72 594.62,-78 594.62,-84 594.62,-84 594.62,-96 594.62,-96 594.62,-102 588.62,-108 582.62,-108"/>
<text text-anchor="middle" x="563" y="-93.05" font-family="Helvetica,sans-Serif" font-size="11.00">APIs</text>
<text text-anchor="middle" x="563" y="-79.55" font-family="Helvetica,sans-Serif" font-size="11.00">vigentes</text>
</g>
<!-- M2&#45;&gt;R -->
<g id="edge6" class="edge">
<title>M2&#45;&gt;R</title>
<path fill="none" stroke="#666666" d="M550.89,-71.7C545.45,-63.93 538.91,-54.59 532.86,-45.94"/>
<polygon fill="#666666" stroke="#666666" points="535.78,-44.02 527.18,-37.83 530.05,-48.03 535.78,-44.02"/>
</g>
<!-- M3 -->
<g id="node7" class="node">
<title>M3</title>
<path fill="#ffffff" stroke="black" d="M501.5,-108C501.5,-108 428.5,-108 428.5,-108 422.5,-108 416.5,-102 416.5,-96 416.5,-96 416.5,-84 416.5,-84 416.5,-78 422.5,-72 428.5,-72 428.5,-72 501.5,-72 501.5,-72 507.5,-72 513.5,-78 513.5,-84 513.5,-84 513.5,-96 513.5,-96 513.5,-102 507.5,-108 501.5,-108"/>
<text text-anchor="middle" x="465" y="-93.05" font-family="Helvetica,sans-Serif" font-size="11.00">Navegación</text>
<text text-anchor="middle" x="465" y="-79.55" font-family="Helvetica,sans-Serif" font-size="11.00">con Playwright</text>
</g>
<!-- M3&#45;&gt;R -->
<g id="edge7" class="edge">
<title>M3&#45;&gt;R</title>
<path fill="none" stroke="#666666" d="M477.11,-71.7C482.55,-63.93 489.09,-54.59 495.14,-45.94"/>
<polygon fill="#666666" stroke="#666666" points="497.95,-48.03 500.82,-37.83 492.22,-44.02 497.95,-48.03"/>
</g>
<!-- O1 -->
<g id="node8" class="node">
<title>O1</title>
<path fill="#ffffff" stroke="black" d="M957.88,-108C957.88,-108 920.12,-108 920.12,-108 914.12,-108 908.12,-102 908.12,-96 908.12,-96 908.12,-84 908.12,-84 908.12,-78 914.12,-72 920.12,-72 920.12,-72 957.88,-72 957.88,-72 963.88,-72 969.88,-78 969.88,-84 969.88,-84 969.88,-96 969.88,-96 969.88,-102 963.88,-108 957.88,-108"/>
<text text-anchor="middle" x="939" y="-93.05" font-family="Helvetica,sans-Serif" font-size="11.00">Schema</text>
<text text-anchor="middle" x="939" y="-79.55" font-family="Helvetica,sans-Serif" font-size="11.00">en disco</text>
</g>
<!-- O1&#45;&gt;R -->
<g id="edge8" class="edge">
<title>O1&#45;&gt;R</title>
<path fill="none" stroke="#666666" d="M915.55,-71.58C910.62,-68.62 905.3,-65.89 900,-64 843.75,-43.91 680.67,-30.08 585.44,-23.47"/>
<polygon fill="#666666" stroke="#666666" points="585.9,-19.99 575.68,-22.8 585.42,-26.97 585.9,-19.99"/>
</g>
<!-- O2 -->
<g id="node9" class="node">
<title>O2</title>
<path fill="#ffffff" stroke="black" d="M878.5,-108C878.5,-108 835.5,-108 835.5,-108 829.5,-108 823.5,-102 823.5,-96 823.5,-96 823.5,-84 823.5,-84 823.5,-78 829.5,-72 835.5,-72 835.5,-72 878.5,-72 878.5,-72 884.5,-72 890.5,-78 890.5,-84 890.5,-84 890.5,-96 890.5,-96 890.5,-102 884.5,-108 878.5,-108"/>
<text text-anchor="middle" x="857" y="-93.05" font-family="Helvetica,sans-Serif" font-size="11.00">Conexión</text>
<text text-anchor="middle" x="857" y="-79.55" font-family="Helvetica,sans-Serif" font-size="11.00">en vivo</text>
</g>
<!-- O2&#45;&gt;R -->
<g id="edge9" class="edge">
<title>O2&#45;&gt;R</title>
<path fill="none" stroke="#666666" d="M831.56,-71.75C826.27,-68.77 820.59,-66 815,-64 739.45,-37.05 647.66,-26.24 585.46,-21.9"/>
<polygon fill="#666666" stroke="#666666" points="585.92,-18.43 575.71,-21.26 585.46,-25.41 585.92,-18.43"/>
</g>
<!-- O3 -->
<g id="node10" class="node">
<title>O3</title>
<path fill="#ffffff" stroke="black" d="M793.5,-108C793.5,-108 750.5,-108 750.5,-108 744.5,-108 738.5,-102 738.5,-96 738.5,-96 738.5,-84 738.5,-84 738.5,-78 744.5,-72 750.5,-72 750.5,-72 793.5,-72 793.5,-72 799.5,-72 805.5,-78 805.5,-84 805.5,-84 805.5,-96 805.5,-96 805.5,-102 799.5,-108 793.5,-108"/>
<text text-anchor="middle" x="772" y="-93.05" font-family="Helvetica,sans-Serif" font-size="11.00">Vistas y</text>
<text text-anchor="middle" x="772" y="-79.55" font-family="Helvetica,sans-Serif" font-size="11.00">paquetes</text>
</g>
<!-- O3&#45;&gt;R -->
<g id="edge10" class="edge">
<title>O3&#45;&gt;R</title>
<path fill="none" stroke="#666666" d="M742.9,-71.56C737.41,-68.74 731.63,-66.08 726,-64 680.57,-47.24 627.24,-35.96 585.43,-28.88"/>
<polygon fill="#666666" stroke="#666666" points="586.16,-25.45 575.73,-27.28 585.03,-32.36 586.16,-25.45"/>
</g>
</g>
</svg>
