<svg xmlns="http://www.w3.org/2000/svg" width="552" height="272" class="svgbob">
  <style>.svgbob line, .svgbob path, .svgbob circle, .svgbob rect, .svgbob polygon {
  stroke: black;
  stroke-width: 2;
  stroke-opacity: 1;
  fill-opacity: 1;
  stroke-linecap: round;
  stroke-linejoin: miter;
}

.svgbob text {
  white-space: pre;
  fill: black;
  font-family: Iosevka Fixed, monospace;
  font-size: 14px;
}

.svgbob rect.backdrop {
  stroke: none;
  fill: white;
}

.svgbob .broken {
  stroke-dasharray: 8;
}

.svgbob .filled {
  fill: black;
}

.svgbob .bg_filled {
  fill: white;
  stroke-width: 1;
}

.svgbob .nofill {
  fill: white;
}

.svgbob .end_marked_arrow {
  marker-end: url(#arrow);
}

.svgbob .start_marked_arrow {
  marker-start: url(#arrow);
}

.svgbob .end_marked_diamond {
  marker-end: url(#diamond);
}

.svgbob .start_marked_diamond {
  marker-start: url(#diamond);
}

.svgbob .end_marked_circle {
  marker-end: url(#circle);
}

.svgbob .start_marked_circle {
  marker-start: url(#circle);
}

.svgbob .end_marked_open_circle {
  marker-end: url(#open_circle);
}

.svgbob .start_marked_open_circle {
  marker-start: url(#open_circle);
}

.svgbob .end_marked_big_open_circle {
  marker-end: url(#big_open_circle);
}

.svgbob .start_marked_big_open_circle {
  marker-start: url(#big_open_circle);
}

</style>
  <defs>
    <marker id="arrow" viewBox="-2 -2 8 8" refX="4" refY="2" markerWidth="7" markerHeight="7" orient="auto-start-reverse">
      <polygon points="0,0 0,4 4,2 0,0"></polygon>
    </marker>
    <marker id="diamond" viewBox="-2 -2 8 8" refX="4" refY="2" markerWidth="7" markerHeight="7" orient="auto-start-reverse">
      <polygon points="0,2 2,0 4,2 2,4 0,2"></polygon>
    </marker>
    <marker id="circle" viewBox="0 0 8 8" refX="4" refY="4" markerWidth="7" markerHeight="7" orient="auto-start-reverse">
      <circle cx="4" cy="4" r="2" class="filled"></circle>
    </marker>
    <marker id="open_circle" viewBox="0 0 8 8" refX="4" refY="4" markerWidth="7" markerHeight="7" orient="auto-start-reverse">
      <circle cx="4" cy="4" r="2" class="bg_filled"></circle>
    </marker>
    <marker id="big_open_circle" viewBox="0 0 8 8" refX="4" refY="4" markerWidth="7" markerHeight="7" orient="auto-start-reverse">
      <circle cx="4" cy="4" r="3" class="bg_filled"></circle>
    </marker>
  </defs>
  <rect class="backdrop" x="0" y="0" width="552" height="272"></rect>
  <text x="18" y="28" >&lt;script</text>
  <text x="82" y="28" >setup</text>
  <text x="130" y="28" >lang</text>
  <line x1="160" y1="22" x2="168" y2="22" class="solid"></line>
  <line x1="160" y1="26" x2="168" y2="26" class="solid"></line>
  <text x="202" y="28" >&gt;</text>
  <text x="34" y="44" >imports</text>
  <text x="34" y="60" >ref</text>
  <line x1="72" y1="48" x2="64" y2="64" class="solid"></line>
  <text x="82" y="60" >reactive</text>
  <text x="34" y="76" >funciones</text>
  <text x="18" y="92" >&lt;</text>
  <line x1="32" y1="80" x2="24" y2="96" class="solid"></line>
  <text x="34" y="92" >script&gt;</text>
  <text x="18" y="124" >&lt;template&gt;</text>
  <text x="34" y="140" >{{</text>
  <text x="58" y="140" >interpolaci</text>
  <line x1="146" y1="140" x2="148" y2="136" class="solid end_marked_open_circle"></line>
  <text x="154" y="140" >n</text>
  <text x="170" y="140" >}}</text>
  <text x="34" y="156" >v</text>
  <line x1="40" y1="152" x2="48" y2="152" class="solid"></line>
  <text x="50" y="156" >if</text>
  <line x1="80" y1="144" x2="72" y2="160" class="solid"></line>
  <text x="90" y="156" >v</text>
  <line x1="96" y1="152" x2="104" y2="152" class="solid"></line>
  <text x="106" y="156" >for</text>
  <line x1="144" y1="144" x2="136" y2="160" class="solid"></line>
  <text x="154" y="156" >@click</text>
  <text x="18" y="172" >&lt;</text>
  <line x1="32" y1="160" x2="24" y2="176" class="solid"></line>
  <text x="34" y="172" >template&gt;</text>
  <text x="18" y="204" >&lt;style</text>
  <text x="74" y="204" >scoped</text>
  <text x="130" y="204" >lang</text>
  <line x1="160" y1="198" x2="168" y2="198" class="solid"></line>
  <line x1="160" y1="202" x2="168" y2="202" class="solid"></line>
  <text x="218" y="204" >&gt;</text>
  <text x="34" y="220" >.clase</text>
  <text x="90" y="220" >{</text>
  <text x="106" y="220" >...</text>
  <text x="138" y="220" >}</text>
  <text x="18" y="236" >&lt;</text>
  <line x1="32" y1="224" x2="24" y2="240" class="solid"></line>
  <text x="34" y="236" >style&gt;</text>
  <polygon points="264,20 256,24 264,28" class="filled"></polygon>
  <line x1="264" y1="24" x2="272" y2="24" class="solid"></line>
  <text x="282" y="28" >LOGICA</text>
  <text x="338" y="28" >TypeScript</text>
  <path d="M 288,32 A 16,16 0,0,0 288,48" class="nofill"></path>
  <text x="290" y="44" >lo</text>
  <text x="314" y="44" >que</text>
  <text x="346" y="44" >el</text>
  <text x="370" y="44" >componente</text>
  <text x="458" y="44" >sabe</text>
  <text x="498" y="44" >hacer</text>
  <path d="M 536,32 A 16,16 0,0,1 536,48" class="nofill"></path>
  <polygon points="264,116 256,120 264,124" class="filled"></polygon>
  <line x1="264" y1="120" x2="272" y2="120" class="solid"></line>
  <text x="282" y="124" >VISTA</text>
  <path d="M 336,112 A 16,16 0,0,0 336,128" class="nofill"></path>
  <text x="338" y="124" >HTML</text>
  <text x="378" y="124" >+</text>
  <text x="394" y="124" >directivas</text>
  <path d="M 472,112 A 16,16 0,0,1 472,128" class="nofill"></path>
  <path d="M 288,128 A 16,16 0,0,0 288,144" class="nofill"></path>
  <text x="290" y="140" >lo</text>
  <text x="314" y="140" >que</text>
  <text x="346" y="140" >el</text>
  <text x="370" y="140" >componente</text>
  <text x="458" y="140" >pinta</text>
  <path d="M 496,128 A 16,16 0,0,1 496,144" class="nofill"></path>
  <polygon points="264,196 256,200 264,204" class="filled"></polygon>
  <line x1="264" y1="200" x2="272" y2="200" class="solid"></line>
  <text x="282" y="204" >ESTILO</text>
  <text x="338" y="204" >local</text>
  <path d="M 288,208 A 16,16 0,0,0 288,224" class="nofill"></path>
  <text x="290" y="220" >CSS</text>
  <text x="322" y="220" >encapsulado</text>
  <text x="418" y="220" >al</text>
  <text x="442" y="220" >componente</text>
  <path d="M 520,208 A 16,16 0,0,1 520,224" class="nofill"></path>
  <text x="170" y="28" >ts</text>
  <text x="170" y="204" >scss</text>
  <g>
    <line x1="4" y1="8" x2="228" y2="8" class="solid"></line>
    <line x1="4" y1="8" x2="4" y2="248" class="solid"></line>
    <line x1="228" y1="8" x2="228" y2="248" class="solid"></line>
    <line x1="4" y1="104" x2="228" y2="104" class="solid"></line>
    <line x1="4" y1="184" x2="228" y2="184" class="solid"></line>
    <line x1="4" y1="248" x2="228" y2="248" class="solid"></line>
  </g>
</svg>
